PathFileType	4	(x/y/z)	S10_SL_Cal_T01
DataRate	CameraRate	NumFrames	NumMarkers	Units	OrigDataRate	OrigDataStartFrame	OrigNumFrames
240	240	8	51	mm	240	601	2400
Frame#	Time	Sternum			R.Acromium			L.Acromium			Top.Head			R.ASIS			L.ASIS			R.PSIS			L.PSIS			R.Great.Tro			L.Great.Tro			R.Iliac.Crest			L.Iliac.Crest			V.Sacral			R.Thigh.Upper.Post			R.Thigh.Lower.Ant			R.Thigh.Lower.Post			R.Thigh.Upper.Ant			R.Knee.Lat			R.Knee.Med			R.Shank.Upper.Post			R.Shank.Lower.Ant			R.Shank.Lower.Post			R.Shank.Upper.Ant			R.Ankle.Lat			R.Ankle.Med			R.Heel.Upper			R.Heel.Med			R.Heel.Lat			R.Toe.Lat			R.Toe.Med			R.Toe.Tip			L.Thigh.Upper.Post			L.Thigh.Lower.Ant			L.Thigh.Lower.Post			L.Thigh.Upper.Ant			L.Knee.Lat			L.Knee.Med			L.Shank.Upper.Post			L.Shank.Lower.Ant			L.Shank.Lower.Post			L.Shank.Upper.Ant			L.Ankle.Lat			L.Ankle.Med			L.Heel.Upper			L.Heel.Med			L.Heel.Lat			L.Toe.Lat			L.Toe.Med			L.Toe.Tip			Cervical.Spine			Back			
		X1	Y1	Z1	X2	Y2	Z2	X3	Y3	Z3	X4	Y4	Z4	X5	Y5	Z5	X6	Y6	Z6	X7	Y7	Z7	X8	Y8	Z8	X9	Y9	Z9	X10	Y10	Z10	X11	Y11	Z11	X12	Y12	Z12	X13	Y13	Z13	X14	Y14	Z14	X15	Y15	Z15	X16	Y16	Z16	X17	Y17	Z17	X18	Y18	Z18	X19	Y19	Z19	X20	Y20	Z20	X21	Y21	Z21	X22	Y22	Z22	X23	Y23	Z23	X24	Y24	Z24	X25	Y25	Z25	X26	Y26	Z26	X27	Y27	Z27	X28	Y28	Z28	X29	Y29	Z29	X30	Y30	Z30	X31	Y31	Z31	X32	Y32	Z32	X33	Y33	Z33	X34	Y34	Z34	X35	Y35	Z35	X36	Y36	Z36	X37	Y37	Z37	X38	Y38	Z38	X39	Y39	Z39	X40	Y40	Z40	X41	Y41	Z41	X42	Y42	Z42	X43	Y43	Z43	X44	Y44	Z44	X45	Y45	Z45	X46	Y46	Z46	X47	Y47	Z47	X48	Y48	Z48	X49	Y49	Z49	X50	Y50	Z50	X51	Y51	Z51	

601	2.5	778.64	1305.5	326.39	632.24	1448.5	477.95	635.66	1482.2	173.37	659.13	1774.5	347.64	728.58	1006.4	434.17	732.72	1026.4	198.81	534.06	1057.4	346	542.05	1063.7	264.76	646.03	937.03	503.29	663.03	963.02	138.1	640.47	1099	480.41	670.2	1110.5	170.85	510.41	1031.4	308.02	627.47	727.53	507.24	667.1	639.83	469.55	604.46	640.97	499.94	692.15	727.91	472.03	581.1	517.14	463.19	570.93	515.28	335.89	512.38	296.47	475.21	583.04	237.64	465.84	515.31	222.54	472.38	583.03	314.59	468.37	543.35	108.58	455.82	566.9	113.48	380.76	494.13	64.313	406.14	507.88	37.286	380.37	494.64	40.116	440.67	659.76	39.226	508.61	702.2	44.383	404.32	754.93	60.518	454.3	575.22	709.55	117.33	630.61	613.62	132	554.48	616.54	127.72	652.96	699.66	124.29	575.9	523.14	130.01	566.1	505.68	257.21	516.26	308.86	115.56	588.62	225.84	130.19	524.59	231.72	122.81	580.55	302.28	122.69	564.77	103.8	135.49	579.45	111.39	220.26	500.36	76.832	176.16	511.83	45.894	209.75	508.26	46.471	145.38	684.62	41.376	109.11	711.5	47.152	215.66	767.01	60.153	169.72	564.93	1507.3	335.79	502.43	1291.9	315.84
602	2.5042	778.61	1305.5	326.39	632.19	1448.5	477.92	635.63	1482.1	173.33	659.1	1774.5	347.59	728.57	1006.5	434.16	732.72	1026.4	198.8	534.05	1057.4	345.98	542.04	1063.7	264.74	646.01	937.03	503.28	663.02	963.02	138.09	640.46	1099	480.4	670.2	1110.5	170.84	510.4	1031.4	308	627.46	727.53	507.23	667.09	639.83	469.54	604.45	640.98	499.93	692.14	727.92	472.02	581.09	517.14	463.19	570.93	515.28	335.88	512.37	296.47	475.21	583.04	237.64	465.84	515.31	222.55	472.38	583.03	314.59	468.36	543.35	108.58	455.82	566.9	113.48	380.76	494.13	64.31	406.14	507.88	37.283	380.37	494.64	40.115	440.67	659.75	39.227	508.61	702.19	44.383	404.32	754.93	60.519	454.3	575.2	709.55	117.32	630.58	613.62	132	554.46	616.53	127.71	652.95	699.66	124.28	575.88	523.14	130	566.09	505.68	257.2	516.25	308.86	115.56	588.62	225.84	130.19	524.59	231.72	122.81	580.54	302.28	122.69	564.77	103.8	135.49	579.44	111.39	220.26	500.36	76.831	176.16	511.83	45.894	209.75	508.26	46.471	145.37	684.62	41.376	109.11	711.5	47.152	215.66	767.01	60.153	169.72	564.89	1507.3	335.75	502.42	1291.9	315.81
603	2.5083	778.58	1305.5	326.38	632.14	1448.5	477.89	635.59	1482.1	173.29	659.08	1774.5	347.54	728.56	1006.5	434.15	732.71	1026.4	198.79	534.04	1057.4	345.96	542.04	1063.7	264.73	646	937.03	503.27	663.02	963.02	138.08	640.44	1099	480.39	670.2	1110.5	170.82	510.39	1031.4	307.98	627.44	727.54	507.23	667.08	639.84	469.54	604.43	640.98	499.93	692.13	727.92	472.02	581.09	517.14	463.18	570.93	515.28	335.87	512.37	296.47	475.2	583.04	237.64	465.84	515.31	222.55	472.38	583.03	314.59	468.36	543.35	108.58	455.82	566.9	113.48	380.76	494.13	64.306	406.15	507.88	37.281	380.37	494.64	40.114	440.67	659.75	39.228	508.61	702.19	44.384	404.32	754.93	60.52	454.3	575.18	709.55	117.32	630.55	613.61	132.01	554.44	616.53	127.71	652.93	699.66	124.27	575.87	523.14	130	566.07	505.68	257.2	516.25	308.86	115.56	588.61	225.84	130.19	524.58	231.72	122.81	580.53	302.28	122.68	564.77	103.8	135.49	579.44	111.39	220.26	500.36	76.831	176.16	511.83	45.894	209.75	508.26	46.471	145.37	684.62	41.376	109.11	711.5	47.153	215.66	767.01	60.153	169.72	564.85	1507.3	335.7	502.4	1291.9	315.78
604	2.5125	778.55	1305.5	326.38	632.09	1448.5	477.86	635.55	1482.1	173.25	659.06	1774.6	347.5	728.54	1006.5	434.14	732.71	1026.4	198.78	534.03	1057.4	345.93	542.03	1063.7	264.71	645.98	937.04	503.26	663.01	963.02	138.07	640.43	1099	480.38	670.2	1110.5	170.81	510.38	1031.4	307.96	627.43	727.54	507.22	667.07	639.84	469.53	604.42	640.99	499.92	692.11	727.92	472.01	581.09	517.14	463.18	570.93	515.28	335.87	512.37	296.47	475.2	583.04	237.65	465.84	515.31	222.55	472.37	583.03	314.59	468.36	543.35	108.58	455.82	566.9	113.48	380.76	494.13	64.302	406.15	507.88	37.28	380.37	494.64	40.114	440.67	659.75	39.229	508.61	702.19	44.385	404.32	754.93	60.521	454.3	575.16	709.55	117.31	630.52	613.61	132.01	554.42	616.53	127.71	652.91	699.66	124.26	575.86	523.14	129.99	566.06	505.68	257.19	516.24	308.85	115.56	588.61	225.84	130.18	524.58	231.71	122.81	580.53	302.28	122.68	564.77	103.8	135.49	579.44	111.39	220.26	500.36	76.831	176.16	511.83	45.894	209.75	508.26	46.471	145.37	684.62	41.376	109.11	711.5	47.153	215.66	767.01	60.154	169.72	564.81	1507.3	335.66	502.39	1291.8	315.76
605	2.5167	778.53	1305.5	326.37	632.04	1448.5	477.83	635.51	1482.1	173.21	659.03	1774.6	347.45	728.53	1006.5	434.13	732.71	1026.4	198.77	534.02	1057.4	345.91	542.03	1063.7	264.69	645.97	937.04	503.25	663	963.02	138.06	640.41	1099	480.37	670.2	1110.5	170.79	510.37	1031.4	307.94	627.42	727.55	507.21	667.06	639.84	469.53	604.41	640.99	499.91	692.1	727.93	472.01	581.08	517.14	463.17	570.93	515.28	335.86	512.36	296.47	475.19	583.03	237.65	465.83	515.31	222.55	472.37	583.02	314.59	468.35	543.35	108.58	455.82	566.9	113.48	380.76	494.13	64.298	406.15	507.88	37.278	380.37	494.64	40.113	440.68	659.75	39.23	508.61	702.19	44.385	404.32	754.93	60.522	454.3	575.15	709.55	117.31	630.48	613.6	132.02	554.4	616.53	127.7	652.89	699.66	124.25	575.84	523.14	129.99	566.05	505.68	257.19	516.23	308.85	115.55	588.6	225.84	130.18	524.57	231.71	122.81	580.52	302.28	122.68	564.77	103.8	135.49	579.44	111.39	220.26	500.36	76.831	176.16	511.83	45.894	209.75	508.26	46.47	145.37	684.62	41.377	109.11	711.5	47.154	215.66	767.01	60.154	169.72	564.76	1507.3	335.62	502.37	1291.8	315.73
606	2.5208	778.5	1305.6	326.36	631.99	1448.5	477.8	635.47	1482.1	173.17	659.01	1774.6	347.41	728.51	1006.5	434.12	732.7	1026.4	198.76	534.01	1057.4	345.88	542.03	1063.7	264.68	645.95	937.04	503.24	663	963.02	138.04	640.4	1099	480.36	670.2	1110.5	170.78	510.36	1031.4	307.92	627.41	727.55	507.2	667.05	639.85	469.52	604.39	641	499.91	692.09	727.93	472	581.08	517.14	463.16	570.93	515.28	335.85	512.36	296.47	475.19	583.03	237.65	465.83	515.31	222.55	472.37	583.02	314.59	468.35	543.34	108.58	455.82	566.9	113.48	380.75	494.13	64.294	406.15	507.88	37.277	380.37	494.64	40.112	440.68	659.75	39.231	508.61	702.19	44.386	404.32	754.93	60.524	454.3	575.13	709.55	117.3	630.44	613.6	132.02	554.39	616.53	127.69	652.87	699.65	124.24	575.83	523.14	129.98	566.04	505.68	257.18	516.22	308.85	115.55	588.59	225.84	130.18	524.57	231.71	122.81	580.51	302.28	122.67	564.77	103.8	135.49	579.44	111.39	220.25	500.36	76.831	176.16	511.83	45.895	209.75	508.26	46.47	145.37	684.62	41.377	109.11	711.5	47.154	215.66	767.02	60.154	169.72	564.72	1507.3	335.58	502.36	1291.8	315.71
607	2.525	778.47	1305.6	326.35	631.93	1448.5	477.77	635.43	1482	173.13	658.98	1774.6	347.36	728.5	1006.5	434.11	732.7	1026.4	198.75	534	1057.4	345.85	542.03	1063.7	264.66	645.93	937.05	503.22	662.99	963.02	138.03	640.38	1099	480.35	670.2	1110.5	170.76	510.35	1031.4	307.9	627.39	727.56	507.19	667.04	639.85	469.52	604.37	641	499.9	692.07	727.93	472	581.08	517.14	463.16	570.92	515.27	335.84	512.36	296.47	475.18	583.03	237.65	465.83	515.31	222.55	472.36	583.02	314.59	468.34	543.34	108.58	455.82	566.9	113.48	380.75	494.13	64.29	406.15	507.88	37.277	380.37	494.64	40.111	440.68	659.75	39.232	508.61	702.19	44.387	404.32	754.93	60.526	454.3	575.11	709.55	117.29	630.4	613.59	132.03	554.37	616.53	127.69	652.86	699.65	124.23	575.81	523.14	129.97	566.03	505.68	257.17	516.21	308.85	115.55	588.59	225.84	130.18	524.56	231.71	122.81	580.5	302.28	122.67	564.77	103.8	135.49	579.44	111.39	220.25	500.36	76.831	176.16	511.83	45.895	209.75	508.26	46.47	145.37	684.62	41.378	109.11	711.5	47.154	215.66	767.02	60.155	169.72	564.67	1507.3	335.53	502.34	1291.8	315.68
608	2.5292	778.44	1305.6	326.34	631.88	1448.6	477.74	635.39	1482	173.09	658.96	1774.6	347.32	728.49	1006.5	434.1	732.7	1026.4	198.74	533.99	1057.4	345.83	542.02	1063.7	264.64	645.92	937.05	503.21	662.99	963.01	138.02	640.37	1099	480.34	670.2	1110.5	170.74	510.34	1031.5	307.88	627.38	727.56	507.18	667.03	639.85	469.51	604.36	641.01	499.89	692.06	727.94	471.99	581.07	517.14	463.15	570.92	515.27	335.83	512.35	296.47	475.18	583.02	237.65	465.82	515.3	222.55	472.36	583.01	314.59	468.34	543.34	108.58	455.81	566.9	113.48	380.75	494.13	64.287	406.15	507.88	37.276	380.37	494.64	40.111	440.68	659.75	39.233	508.61	702.19	44.388	404.32	754.93	60.528	454.3	575.09	709.55	117.29	630.36	613.59	132.04	554.35	616.53	127.68	652.84	699.65	124.22	575.8	523.14	129.97	566.02	505.68	257.17	516.21	308.84	115.55	588.58	225.84	130.17	524.55	231.71	122.81	580.5	302.28	122.67	564.77	103.8	135.49	579.43	111.39	220.25	500.36	76.831	176.16	511.83	45.895	209.75	508.26	46.469	145.37	684.62	41.378	109.11	711.5	47.153	215.66	767.02	60.155	169.72	564.63	1507.3	335.49	502.32	1291.8	315.66
